<svg width="59" height="59" viewBox="0 0 59 59" fill="none" xmlns="http://www.w3.org/2000/svg">
<path d="M50.4502 0C54.7367 4.20325e-05 58.2119 3.47516 58.2119 7.76172V50.4502C58.2119 54.7367 54.7367 58.2119 50.4502 58.2119H7.76172C3.47515 58.2119 4.06275e-05 54.7368 0 50.4502V7.76172C0 3.47513 3.47513 0 7.76172 0H50.4502ZM17.0752 9.31348C12.7888 9.3136 9.3136 12.7888 9.31348 17.0752V41.1367C9.31373 45.423 12.7889 48.8973 17.0752 48.8975H41.1367C45.4229 48.8972 48.8972 45.4229 48.8975 41.1367V17.0752C48.8973 12.7889 45.423 9.31372 41.1367 9.31348H17.0752Z" fill="url(#paint0_linear_228_4)"/>
<defs>
<linearGradient id="paint0_linear_228_4" x1="29.1058" y1="0" x2="29.1058" y2="58.2117" gradientUnits="userSpaceOnUse">
<stop stop-color="#1D4ED8"/>
<stop offset="0.5" stop-color="#19658F"/>
<stop offset="1" stop-color="#15803D"/>
</linearGradient>
</defs>
</svg>
